<svg id="e76419e8-217f-4623-abeb-e9c3d79c6db7" data-name="Layer 1" xmlns="http://www.w3.org/2000/svg" xmlns:xlink="http://www.w3.org/1999/xlink" width="890.06924" height="692.72819" viewBox="0 0 890.06924 692.72819"><defs><linearGradient id="ef5d85de-35d2-4357-9719-f86a6844cb01" x1="507.94698" y1="790.48086" x2="507.94698" y2="154.92035" gradientUnits="userSpaceOnUse"><stop offset="0" stop-color="gray" stop-opacity="0.25"/><stop offset="0.53514" stop-color="gray" stop-opacity="0.12"/><stop offset="1" stop-color="gray" stop-opacity="0.1"/></linearGradient></defs><title>Chef</title><ellipse cx="324" cy="676.39486" rx="324" ry="11.54736" fill="#6c63ff" opacity="0.1"/><path d="M393.7874,124.60013c20.64135-18.394,53.04148-22.1428,82.53346-20.67756,92.63364,4.60228,176.25357,49.32412,248.584,99.9096,26.18453,18.31259,51.965,38.04815,68.96182,63.26626,34.6,51.336,24.33663,122.45291-23.77551,164.74464-16.36911,14.38883-36.213,25.41943-56.58481,35.19758-36.22189,17.386-75.30482,31.34322-116.41616,35.31563-29.317,2.83276-58.99459.52985-88.14-3.42284C427.52,487.8899,347.59057,463.47022,280.598,421.69021c-29.3826-18.32449-57.07736-41.106-69.18838-70.7503s-4.36013-67.20957,25.64255-84.75625c12.40881-7.25713,27.24506-10.53475,41.77044-13.61235,21.38049-4.53006,43.104-8.9958,62.39823-18.20536,19.92844-9.51227,43.52576-27.90745,39.58-48.962C376.56707,162.813,373.17021,142.9726,393.7874,124.60013Z" transform="translate(-154.96538 -103.63591)" fill="#6c63ff" opacity="0.1"/><ellipse cx="803.41595" cy="685.06152" rx="86.65329" ry="7.66667" fill="#6c63ff" opacity="0.1"/><path d="M606.90432,364.52992c-1.411-2.731-8.8689-19.70229-8.8689-19.70229l-12.49705-32.382s-8.86884-13.655-8.86884-16.19095-16.1252-12.67968-16.1252-12.67968-13.10173-3.9014-14.10958-4.29159-16.52832-5.52446-16.52832-5.52446-6.11152-8.03693-6.98217-5.93793l-.00076.00527c-.03179-.053-.06442-.09907-.096-.15356a20.75042,20.75042,0,0,1-2.33-7.51415c-.03319-.23368-.06163-.48042-.09128-.724a29.91071,29.91071,0,0,0,13.12839-24.62757,29.51071,29.51071,0,0,0-.258-3.82816,2.684,2.684,0,0,1,.34667-.18255c.25084-.10894.18725-.19752.003-.29.06316-.0331.12618-.06829.18972-.09526.33375-.145.11091-.25477-.21214-.38522l.01938-.00975c.45474-.19758-.12028-.32846-.58218-.53738-.02483-.135-.04808-.27046-.07475-.40484a2.72261,2.72261,0,0,0,.18516-.8038c.041.02036.07841.04236.12174.06131a3.41427,3.41427,0,0,0-.0083-1.52588,2.68373,2.68373,0,0,1-.10489.2997,2.54714,2.54714,0,0,0-1.17337-2.30926c-.02312-.02023-.04864-.04187-.07227-.06234l.855-8.75135c12.60461-.59568,14.81591-22.04012,11.94122-23.23147s0-3.77262,0-8.9352-9.50879-10.92078-9.50879-10.92078-3.9804,1.98564-10.17211-7.94234-28.96849-11.51646-30.51641-8.9352-11.72008,5.95682-24.98808,9.72943-10.83557,19.45886-8.62427,22.83436a19.26588,19.26588,0,0,1,3.09589,9.33231c0,1.98558,4.20153,10.325,4.20153,10.325-1.32513,2.8898,2.04731,18.72054,3.0461,23.21989-.01571.1383-.03237.27611-.04618.415-.00848.0136-.0197.02513-.02793.03892a2.11907,2.11907,0,0,0-.129.22627,2.58938,2.58938,0,0,0-.20377,1.49241,3.11719,3.11719,0,0,0,.22379,1.63083,29.75816,29.75816,0,0,0,10.55248,22.2022c.01565.27071.03111.54326.04593.822.18553,3.67515.2903,8.02137.09685,12.18031-.01.21278-.02591.42114-.0375.63288a4.75934,4.75934,0,0,0-3.373,2.65991c-1.24969,2.4033-8.50607,6.10971-8.50607,6.10971s-12.69861.58519-13.90795,2.92609-19.55187,10.14371-19.55187,10.14371-9.67507,5.65711-8.26417,12.09448c.73725,3.36372-1.33241,8.58945-3.47676,12.8149a60.8571,60.8571,0,0,0-13.91473-3.46959l10.2758,9.8307c-.2153.33606-.34217.52622-.34217.52622l-5.84542,20.67761s-2.01563,7.21769-4.03127,8.97333,1.81408,17.75152,1.81408,17.75152-2.21726,11.31422-4.03133,14.24031,2.82192,10.14371,2.82192,10.14371l9.272,21.06775,24.59092,6.2423s1.63868.34672,4.28674.91383q-.12486.75522-.25547,1.505c-1.18514,6.71053-2.74129,12.88258-4.63594,14.5524-4.636,4.09653-4.43445,22.43325-4.43445,22.43325l.20156,25.9446s1.61252,31.99177.80623,33.16222c-.5089.73875.51238,1.94353,3.207,3.02619-.07709.48153-.15266.97005-.22386,1.46825-.75783,5.306-1.0964,11.361.64509,14.0374a10.66458,10.66458,0,0,1,1.20934,4.68173c0,2.536,3.82978,7.80288,3.82978,7.80288s-3.02349,21.653,2.01563,29.06568,9.272,20.87274,6.8532,23.99389c0,0-4.23283,9.16839-2.21719,13.26487s0,6.43736-2.62037,7.41275-2.39455,8.97332-2.39455,8.97332l4.81336,38.039s2.62031,7.80288.40312,10.53391-2.2172,16.386,1.2094,21.06774-4.83756,13.26486-4.83756,13.26486-5.03912,7.21769,3.02348,9.55858c0,0,1.61253.39013-1.411,3.51128s-3.62816,7.02256-1.61252,8.38807a9.22492,9.22492,0,0,0,1.3074.6495c-.07481.46235-.15583.9413-.25116,1.4495-.77411,4.073-2.23334,9.379-4.886,11.94619a85.15983,85.15983,0,0,0-13.19845,17.58766c-2.76548,5.24357-3.97489,10.15156-.91106,12.4534,7.25632,5.46205,16.52833,7.21769,21.97056,5.07186s13.10173-8.7782,13.10173-8.7782l1.81407-7.60781s-1.20934-4.68173,4.83757-6.43737,11.69082-7.99794,11.69082-7.99794V748.65789a42.85335,42.85335,0,0,0,4.23283-2.76235s2.82192-9.94871,0-13.26492-3.82972-4.48667-.20156-6.63244,4.12-6.82749,1.45936-10.924c-2.66877-4.09653-6.90159-10.14371-3.27344-18.72691s4.95855-34.91786,4.95855-34.91786-1.69316-17.94665,0-22.04312-1.93506-12.28954-1.93506-12.28954,1.2094-10.14378,3.4266-14.8255,4.03133-29.45582,4.03133-29.45582,4.03127-10.5339,4.03127-17.36139-6.24853-23.21358,3.02348-27.50518c0,0,4.03128,3.51128,2.41875,17.55647,0,0,4.636,16.38607,4.636,21.45793s3.4266,23.40863,3.4266,23.40863.40318,5.85218,1.81408,7.998,0,7.99794,0,7.99794,5.24074,4.87679,3.82977,7.99794.24191,10.15935.24191,10.15935l-1.24976,43.68049s-3.62815,18.72691,4.83757,30.04113c0,0-3.02349,16.58108-4.83757,17.75152s6.65165,11.31416,6.65165,11.31416-2.34648,6.57138,2.41881,6.89352v10.858a23.198,23.198,0,0,0,6.65164,7.41275c4.43445,3.12115,2.62031,13.85012,2.62031,13.85012s5.64385,13.65505,20.55965,10.729,16.9315-4.2916,16.12521-9.16839c-.29024-1.779-.93519-4.95483-1.86247-8.55978-1.60448-6.26566-4.06351-13.8267-7.00636-17.55646-4.636-5.87553-8.46578-18.16507-8.46578-18.16507s-1.81408-4.09654,0-5.462,1.00785-3.90141,1.00785-3.90141,1.76568-5.07185.17736-8.193,3.04768-9.55858,3.04768-9.55858l-1.411-30.04107,1.411-43.69606s-6.24853-7.21769-3.62816-11.50929-3.02348-10.33877-3.02348-10.33877-.60467-.19513,1.00785-5.07192a12.15575,12.15575,0,0,0-.40318-8.7782s-3.4266-12.09448,2.62037-21.26287c0,0,2.62037-12.09442,3.4266-18.33672.55628-4.33843,4.03938-20.545,6.11151-30.02556q.17568-.80367.33686-1.53887c2.98478.16306,5.24239.35292,5.24239.35292s-4.636-32.1869,0-38.81933-3.62816-57.35118-3.62816-57.35118-1.97528-8.864-3.19273-17.9076c-.06968-.51525-.1329-1.03007-.19706-1.54488a97.70834,97.70834,0,0,1,11.25084-.24975c9.67512.58519,19.14869-3.12115,19.35025-6.82756s5.44223-18.33672,6.24853-21.65293S608.31528,367.26088,606.90432,364.52992Z" transform="translate(-154.96538 -103.63591)" fill="url(#ef5d85de-35d2-4357-9719-f86a6844cb01)"/><path d="M489.291,740.84592v18.06259s-5.4382,6.21509-11.26485,7.96308-4.66131,6.40931-4.66131,6.40931l-1.748,7.57464s-7.38041,6.60353-12.62439,8.74-14.17817.38845-21.17014-5.04976c-2.9522-2.29182-1.78687-7.17841.87789-12.39911a84.5679,84.5679,0,0,1,12.71761-17.511c2.556-2.556,3.9621-7.8388,4.708-11.89412.55156-3.03765.73022-5.39159.73022-5.39159Z" transform="translate(-154.96538 -103.63591)" fill="#4c495a"/><path d="M489.291,754.32487v4.58364s-5.4382,6.21509-11.26485,7.96308-4.66131,6.40931-4.66131,6.40931l-1.748,7.57464s-7.38041,6.60353-12.62439,8.74-14.17817.38845-21.17014-5.04976c-2.9522-2.29182-1.78687-7.17841.87789-12.39911-.12433,5.48481,1.49943,11.64551,9.41585,11.428a40.10393,40.10393,0,0,0,23.50079-8.54575s-.19422-12.81861,8.74-15.73193A27.21311,27.21311,0,0,0,489.291,754.32487Z" transform="translate(-154.96538 -103.63591)" opacity="0.1"/><path d="M560.376,787.07062c-14.37239,2.91333-19.81059-10.68218-19.81059-10.68218s1.748-10.68218-2.52488-13.78972a22.92017,22.92017,0,0,1-6.40931-7.38042V737.34993l17.47993-12.43017,9.46242,8.3748.6371.55939s3.69021,12.23595,8.1573,18.08587c2.83565,3.71354,5.2051,11.24156,6.75109,17.47993.89354,3.58921,1.515,6.75114,1.79466,8.52247C576.69063,782.79775,574.74842,784.1573,560.376,787.07062Z" transform="translate(-154.96538 -103.63591)" fill="#4c495a"/><path d="M560.376,787.07062c-14.37239,2.91333-19.81059-10.68218-19.81059-10.68218s1.748-10.68218-2.52488-13.78972a22.92017,22.92017,0,0,1-6.40931-7.38042v-6.92207c2.77354,2.92887,8.002,8.60013,9.12841,11.00073,1.55377,3.30176,1.748,15.34349,8.93419,17.47993s21.17014,4.07865,22.33547-1.35955a30.3,30.3,0,0,1,2.08977-5.99759c.89354,3.58921,1.515,6.75114,1.79466,8.52247C576.69063,782.79775,574.74842,784.1573,560.376,787.07062Z" transform="translate(-154.96538 -103.63591)" opacity="0.1"/><path d="M456.856,737.34993l32.435,3.496v9.54791c-3.65911,2.16749-8.90308,4.46709-11.84751,2.10537-4.35054-3.48048-17.28571-7.901-21.3177-9.75768C456.67733,739.70387,456.856,737.34993,456.856,737.34993Z" transform="translate(-154.96538 -103.63591)" opacity="0.1"/><path d="M559.2107,735.40772c-4.46709-1.55377-12.43017,5.244-22.91813,9.51685a10.91744,10.91744,0,0,1-4.66132,1.041v-8.61564l17.47993-12.43017,9.46242,8.3748A11.81351,11.81351,0,0,0,559.2107,735.40772Z" transform="translate(-154.96538 -103.63591)" opacity="0.1"/><path d="M570.66977,521.5699s-.61377,2.85893-1.49156,7.00747c-1.99665,9.43919-5.35285,25.57512-5.88886,29.8946-.77689,6.21509-3.30176,18.25682-3.30176,18.25682-5.82665,9.12841-2.52488,21.17014-2.52488,21.17014a12.46759,12.46759,0,0,1,.38844,8.74c-1.55377,4.85554-.97111,5.04976-.97111,5.04976s5.4382,6.02087,2.91332,10.29374,3.496,11.45906,3.496,11.45906l-1.35955,43.50561,1.35955,29.9101s-4.46709,6.40931-2.93665,9.51685-.17089,8.15731-.17089,8.15731.77688,2.52487-.97111,3.88442,0,5.43821,0,5.43821c-4.46709-1.55378-12.43017,5.244-22.91813,9.51685s-6.992-5.82665-6.992-5.82665-8.1573-10.09951-6.40931-11.26484,4.66131-17.67415,4.66131-17.67415c-8.1573-11.26485-4.66131-29.91011-4.66131-29.91011l1.20421-43.4901s-1.59265-7.00748-.2331-10.115-3.69021-7.96308-3.69021-7.96308,1.35955-5.82664,0-7.96308-1.748-7.96308-1.748-7.96308-3.30176-18.25681-3.30176-23.30657-4.46709-21.36436-4.46709-21.36436c1.55377-13.984-2.33066-17.47993-2.33066-17.47993-8.93419,4.27287-2.91332,20.58747-2.91332,27.38522s-3.88443,17.28571-3.88443,17.28571-1.748,24.66613-3.88443,29.32744-3.30177,14.76083-3.30177,14.76083,3.496,8.1573,1.86455,12.236,0,21.947,0,21.947-1.28188,26.21989-4.77787,34.76564.58267,14.56661,3.1542,18.64526c2.56367,4.07865,2.08978,8.74-1.4062,10.8764s-2.52488,3.30176.19422,6.60353,0,13.20706,0,13.20706-11.07063,8.74-15.92616,4.85553-20.39325-8.93418-22.33547-10.29373-1.35955-5.244,1.55377-8.35153,1.35955-3.496,1.35955-3.496c-7.76886-2.33066-2.91332-9.51685-2.91332-9.51685s7.96308-8.54575,4.66132-13.20706-3.30177-18.25682-1.16533-20.97592-.38845-10.488-.38845-10.488l-4.638-37.87318s-.21755-7.96308,2.30733-8.93419,4.46709-3.30176,2.52488-7.38041,2.13643-13.20706,2.13643-13.20706c2.33066-3.10755-1.748-16.50883-6.60353-23.88924s-1.94221-28.939-1.94221-28.939-3.69021-5.244-3.69021-7.76886a10.88282,10.88282,0,0,0-1.16533-4.66131c-1.678-2.66471-1.35177-8.69336-.62155-13.97617.707-5.11192,1.78688-9.52463,1.78688-9.52463Z" transform="translate(-154.96538 -103.63591)" fill="#5f5d7e"/><path d="M532.60236,301.517l-38.26163,8.93419s-18.83948-15.92616-14.17816-24.47191c1.60043-2.93665,2.30733-7.94757,2.54821-13.24589.18644-4.14082.08544-8.46808-.09332-12.12723-.2718-5.29059-.7069-9.1983-.7069-9.1983s39.23274-22.14124,37.87318,0a56.55407,56.55407,0,0,0,.25644,11.06285,21.15008,21.15008,0,0,0,2.24511,7.48141c2.09756,3.73682,4.68465,3.79121,4.68465,3.79121Z" transform="translate(-154.96538 -103.63591)" fill="#fdc2cc"/><path d="M520.04018,262.4707a30.09176,30.09176,0,0,1-37.42272-1.86455c-.2718-5.29059-.7069-9.1983-.7069-9.1983s39.23274-22.14124,37.87318,0A56.55407,56.55407,0,0,0,520.04018,262.4707Z" transform="translate(-154.96538 -103.63591)" opacity="0.1"/><circle cx="347.53265" cy="133.59378" r="30.10433" fill="#fdc2cc"/><path d="M532.60236,301.517l-38.26163,8.93419s-18.83948-15.92616-14.17816-24.47191c1.60043-2.93665,2.30733-7.94757,2.54821-13.24589a19.51946,19.51946,0,0,0,6.96864,11.69212c8.74,5.82664,7.38041,13.01284,7.38041,13.01284l15.73194-.58267c-.9711-6.4093,4.85554-9.90529,6.79775-10.68218s.97111-4.27287.97111-4.27287l1.72466-11.94851c2.09756,3.73682,4.68465,3.79121,4.68465,3.79121Z" transform="translate(-154.96538 -103.63591)" opacity="0.1"/><path d="M570.66977,521.5699s-.61377,2.85893-1.49156,7.00747c-4.22631-.22528-9.81217-.38844-12.29817.17872-4.27287.97111-21.36436,1.35955-21.36436,1.35955L493.17541,531.615v-1.30516a124.83888,124.83888,0,0,0-14.56661.97111c-7.1862.97111-18.451-.38844-25.63724-1.55377a27.60533,27.60533,0,0,1-6.44819-1.74022c.707-5.11192,1.78688-9.52463,1.78688-9.52463Z" transform="translate(-154.96538 -103.63591)" opacity="0.1"/><path d="M567.368,398.23927c-.61377,3.62805-.16311,9.64113.61377,15.57655,1.17311,9.00413,3.07644,17.82954,3.07644,17.82954s7.96308,50.49758,3.496,57.10111,0,38.65007,0,38.65007-13.40128-1.16533-17.67415-.19422-21.36436,1.35955-21.36436,1.35955l-42.34027,1.49938v-1.30516a124.83888,124.83888,0,0,0-14.56661.97111c-7.1862.9711-18.451-.38845-25.63724-1.55377s-10.09951-3.496-9.32262-4.66132-.77689-33.01765-.77689-33.01765l-.19422-25.83145s-.19422-18.25682,4.27287-22.33547c1.82566-1.66254,3.32509-7.80769,4.46709-14.48894,1.63922-9.67223,2.52488-20.47092,2.52488-20.47092L424.421,328.31955l-.58266-1.55377s8.54574-13.20706,7.18619-19.61637,7.96308-12.04173,7.96308-12.04173,17.67415-7.76886,18.83948-10.09952,13.40128-2.91332,13.40128-2.91332,6.992-3.6902,8.19618-6.083a4.59368,4.59368,0,0,1,3.25511-2.64916,19.56032,19.56032,0,0,0,6.99975,11.83974c8.74,5.82664,7.38041,13.01283,7.38041,13.01283l15.73194-.58266c-.9711-6.40931,4.85554-9.90529,6.79775-10.68218s.97111-4.27287.97111-4.27287l1.818-12.57779c.83891-2.08982,6.72776,5.91209,6.72776,5.91209s14.95506,5.11193,15.92616,5.50037,13.59551,4.27287,13.59551,4.27287,15.53771,10.09952,15.53771,12.6244,8.54575,16.12038,8.54575,16.12038-.101.54383-.28745,1.53821C580.45083,326.77355,568.78976,389.88775,567.368,398.23927Z" transform="translate(-154.96538 -103.63591)" fill="#6c63ff"/><path d="M505.21714,366.7754s-33.60032-8.93419-36.90208-11.07063-22.72391,10.29374.97111,27.191c0,0,28.97437,6.02086,36.72554,0S505.21714,366.7754,505.21714,366.7754Z" transform="translate(-154.96538 -103.63591)" fill="#fdc2cc"/><path d="M577.856,313.55872l4.07865.19422,12.04173,32.24076s7.18619,16.89727,8.54574,19.61637.77689,13.98394,0,17.28571-5.82664,17.86837-6.02086,21.55858-9.32263,7.38041-18.64526,6.79775-31.07543,2.33066-31.07543,2.33066-23.23131-2.42817-37.48474,4.85553c0,0-9.12841-18.83948-8.1573-53.99356,0,0,16.12038-.97111,20.199.58266s23.88924,6.02087,26.41411,3.69021,13.984,4.27287,13.984,4.27287a9.84326,9.84326,0,0,0,0-8.1573c-1.94222-4.66131-5.244-19.22792-.97111-23.88924S577.856,313.55872,577.856,313.55872Z" transform="translate(-154.96538 -103.63591)" opacity="0.1"/><path d="M567.98177,413.81582c-9.64118.65261-20.42436,2.0976-20.42436,2.0976s-23.2289-2.43165-37.48474,4.85554c0,0-9.12841-18.83948-8.1573-53.99356,0,0,16.12038-.97111,20.199.58266s23.88924,6.02087,26.41412,3.69021,13.98394,4.27287,13.98394,4.27287a9.84322,9.84322,0,0,0,0-8.1573c-1.94221-4.66131-5.244-19.22792-.9711-23.88924s17.09149-27.38522,17.09149-27.38522l3.7912.17866c-1.97322,10.70551-13.63429,73.81971-15.056,82.17123C566.75423,401.86732,567.20489,407.8804,567.98177,413.81582Z" transform="translate(-154.96538 -103.63591)" opacity="0.1"/><path d="M578.63285,314.3356l4.07865.19423,12.04173,32.24076s7.18619,16.89726,8.54574,19.61636.77689,13.98395,0,17.28571-5.82664,17.86838-6.02086,21.55858-9.32263,7.38042-18.64526,6.79776-31.07544,2.33065-31.07544,2.33065-23.2313-2.42817-37.48474,4.85554c0,0-9.12841-18.83948-8.1573-53.99356,0,0,16.12038-.97111,20.199.58266s23.88924,6.02086,26.41412,3.69021,13.98394,4.27287,13.98394,4.27287a9.84322,9.84322,0,0,0,0-8.1573c-1.94221-4.66132-5.244-19.22793-.9711-23.88924S578.63285,314.3356,578.63285,314.3356Z" transform="translate(-154.96538 -103.63591)" fill="#6c63ff"/><rect x="550.67558" y="339.71778" width="5.70002" height="51.30021" transform="translate(676.83105 863.76987) rotate(-148.23485)" fill="#dfe6f5"/><ellipse cx="573.51034" cy="333.09197" rx="16.41607" ry="11.51405" transform="translate(-166.57226 541.7095) rotate(-58.23485)" fill="#dfe6f5"/><ellipse cx="573.51034" cy="333.09197" rx="11.78341" ry="8.26475" transform="translate(-166.57226 541.7095) rotate(-58.23485)" opacity="0.1"/><rect x="531.77109" y="379.9391" width="5.70002" height="31.92013" transform="translate(625.78086 910.30717) rotate(-148.23485)" fill="#53526b"/><path d="M495.31184,409.89256l11.84751-3.30176s58.46066,1.55377,38.84429-22.52969c0,0-10.29374-9.9053-31.85232-1.94222s-27.57944,8.93419-27.57944,8.93419Z" transform="translate(-154.96538 -103.63591)" fill="#fdc2cc"/><circle cx="331.60649" cy="202.34818" r="2.33066" opacity="0.1"/><circle cx="371.61611" cy="200.98863" r="2.33066" opacity="0.1"/><circle cx="331.60649" cy="201.57129" r="2.33066" fill="#fff"/><circle cx="334.90826" cy="234.58894" r="2.33066" opacity="0.1"/><circle cx="372.78144" cy="232.25828" r="2.33066" opacity="0.1"/><circle cx="334.90826" cy="233.81205" r="2.33066" fill="#fff"/><circle cx="371.81034" cy="344.72573" r="2.33066" opacity="0.1"/><circle cx="341.13682" cy="344.72573" r="2.33066" opacity="0.1"/><circle cx="371.81034" cy="343.94885" r="2.33066" fill="#fff"/><circle cx="343.46748" cy="383.75101" r="2.33066" opacity="0.1"/><circle cx="372.78144" cy="381.42036" r="2.33066" opacity="0.1"/><circle cx="343.46748" cy="382.97413" r="2.33066" fill="#fff"/><circle cx="341.13682" cy="343.94885" r="2.33066" fill="#fff"/><circle cx="372.78144" cy="380.64347" r="2.33066" fill="#fff"/><circle cx="371.61611" cy="200.21174" r="2.33066" fill="#fff"/><circle cx="372.78144" cy="231.48139" r="2.33066" fill="#fff"/><path d="M531.24281,416.88453s.38844,53.21668,1.55377,62.73353C532.79658,479.61806,533.21961,419.39327,531.24281,416.88453Z" transform="translate(-154.96538 -103.63591)" opacity="0.1"/><path d="M541.1481,441.55066c-.80079,0,15.92616,62.34508,16.703,66.81218S545.80942,441.55066,541.1481,441.55066Z" transform="translate(-154.96538 -103.63591)" opacity="0.1"/><path d="M554.35516,431.45114c0,.58267,9.32263,33.79453,13.984,35.54253S554.35516,431.45114,554.35516,431.45114Z" transform="translate(-154.96538 -103.63591)" opacity="0.1"/><path d="M591.063,366.7754s-19.81059.883-20.39325,3.74327S591.063,366.7754,591.063,366.7754Z" transform="translate(-154.96538 -103.63591)" opacity="0.1"/><path d="M556.10316,620.04017s-14.17817,6.02087-12.04173,6.40931S556.10316,620.04017,556.10316,620.04017Z" transform="translate(-154.96538 -103.63591)" opacity="0.1"/><path d="M526.77572,611.106c-.55217-1.24238,9.51685,5.04975,9.51685,5.82664S527.5526,612.854,526.77572,611.106Z" transform="translate(-154.96538 -103.63591)" opacity="0.1"/><path d="M539.98278,631.49924s11.07062-.55859,11.8475,3.70224S539.98278,631.49924,539.98278,631.49924Z" transform="translate(-154.96538 -103.63591)" opacity="0.1"/><path d="M460.352,631.47513s12.04173-2.35476,13.01284,0S460.352,631.47513,460.352,631.47513Z" transform="translate(-154.96538 -103.63591)" opacity="0.1"/><path d="M464.81907,704.72073s.78964,9.90529-2.13006,12.236S464.81907,704.72073,464.81907,704.72073Z" transform="translate(-154.96538 -103.63591)" opacity="0.1"/><path d="M463.34832,725.69664c3.80141.38845,23.80622-3.10754,23.612,0S463.34832,725.69664,463.34832,725.69664Z" transform="translate(-154.96538 -103.63591)" opacity="0.1"/><path d="M555.13205,713.65491s-6.82282-1.04863-5.1594,3.55434Z" transform="translate(-154.96538 -103.63591)" opacity="0.1"/><path d="M428.30544,325.98889h-3.69021l-5.63242,20.58748s-1.94221,7.18619-3.88443,8.93418,1.748,17.67416,1.748,17.67416-2.13643,11.26484-3.88442,14.17816,2.7191,10.09952,2.7191,10.09952l8.93418,20.97591,23.695,6.21509s41.75761,9.12841,43.69983,10.488,3.6902-.58267,5.04975-13.20706,5.04976-37.0963,7.96308-38.26163c0,0-23.30657,2.52488-25.24878,2.13644s-11.26485.19422-11.26485.19422-12.236-.77688-14.17816.38844,2.52487-5.64117,2.52487-5.64117a18.73107,18.73107,0,0,0,0-9.5081C455.49644,365.99851,454.71956,306.56675,428.30544,325.98889Z" transform="translate(-154.96538 -103.63591)" opacity="0.1"/><path d="M504.246,386.00332c-2.91332,1.16533-6.60353,25.63723-7.96308,38.26163s-3.10754,14.56661-5.04976,13.20706c-1.5771-1.10322-29.41288-7.33381-39.8154-9.63341,1.63922-9.67223,2.52488-20.47092,2.52488-20.47092L424.421,328.31955h3.10754c26.41412-19.42215,27.191,40.00962,28.55056,45.2536a18.73557,18.73557,0,0,1,0,9.50907s-4.4671,6.80553-2.52488,5.6402,14.17817-.38844,14.17817-.38844,9.32263-.58267,11.26484-.19422S504.246,386.00332,504.246,386.00332Z" transform="translate(-154.96538 -103.63591)" opacity="0.1"/><path d="M427.52855,326.76578h-3.6902l-5.63243,20.58747s-1.94221,7.1862-3.88442,8.93419,1.748,17.67415,1.748,17.67415-2.13644,11.26485-3.88443,14.17817,2.7191,10.09951,2.7191,10.09951l8.93419,20.97592,23.695,6.21509s41.75762,9.1284,43.69983,10.488,3.69021-.58266,5.04976-13.207,5.04976-37.0963,7.96308-38.26163c0,0-23.30658,2.52488-25.24879,2.13644s-11.26484.19422-11.26484.19422-12.236-.77689-14.17817.38844,2.52488-5.64117,2.52488-5.64117a18.73107,18.73107,0,0,0,0-9.5081C454.71956,366.7754,453.94267,307.34363,427.52855,326.76578Z" transform="translate(-154.96538 -103.63591)" fill="#6c63ff"/><path d="M440.153,397.07394s-10.68218,20.199-12.6244,17.86838S440.153,397.07394,440.153,397.07394Z" transform="translate(-154.96538 -103.63591)" opacity="0.1"/><path d="M429.08233,385.57172s-9.9053,8.20046-5.244,10.3369S429.08233,385.57172,429.08233,385.57172Z" transform="translate(-154.96538 -103.63591)" opacity="0.1"/><path d="M438.405,375.51536c.77688.19422,14.37238,2.89446,14.5666,4.06922S438.405,375.51536,438.405,375.51536Z" transform="translate(-154.96538 -103.63591)" opacity="0.1"/><path d="M532.68781,233.23648a2.0024,2.0024,0,0,0-1.32845,2.08205c-.79244.69922-1.90342-.12428-2.54821-1.01772-.65255-.88566-1.39056-1.98105-2.37722-1.85677a8.53381,8.53381,0,0,0-1.35955.56716c-1.55377.49717-2.86676-1.32849-3.73686-2.92887q-2.27234-4.20683-4.54477-8.40591c-3.03765,1.76354-6.62686-.08545-9.64118-1.91116s-6.60353-3.68243-9.64886-1.91888c-4.46709,2.57926-4.6303,11.17939-9.26051,13.30028-1.49166.68366-3.2241.536-4.607,1.4761-1.36733.93223-2.10533,2.72683-2.71911,4.44376a4.70682,4.70682,0,0,1-1.52266,2.50933,3.34505,3.34505,0,0,1-1.56933.38071,6.73247,6.73247,0,0,1-4.03976-.56715,3.41411,3.41411,0,0,1-1.39844-4.03982,2.11367,2.11367,0,0,1,.12433-.22528,14.13716,14.13716,0,0,0,1.33622-1.91889c.46612-1.23526-.202-2.67248-.05434-4.00875.24079-2.28405,2.65689-3.48821,3.06866-5.73342.1709-.87789-.00777-1.81789.15534-2.70355a2.45774,2.45774,0,0,1,.09332-.34183l-1.42176.97888c1.59265-1.85677,2.39287-4.436,3.5582-6.689a20.59983,20.59983,0,0,1,12.57-10.23163c5.06531-1.476,10.418-1.0721,15.52994.17872a51.1399,51.1399,0,0,1,13.82082,5.69454,13.7148,13.7148,0,0,1,4.02422,3.27071,25.19186,25.19186,0,0,1,2.38509,4.40493c1.50712,3.12309,5.62465,6.01308,2.34621,6.44814-2.72687.36516-.24088,2.27632,1.18866,3.56592a3.70821,3.70821,0,0,1,.82345.90117,3.22569,3.22569,0,0,1-.171,3.11532C531.2117,232.75482,533.44923,232.89465,532.68781,233.23648Z" transform="translate(-154.96538 -103.63591)" opacity="0.1"/><path d="M532.68781,232.4596a2.00239,2.00239,0,0,0-1.32845,2.08205c-.79244.69921-1.90342-.12429-2.54821-1.01772-.65255-.88566-1.39056-1.98105-2.37722-1.85677a8.53289,8.53289,0,0,0-1.35955.56716c-1.55377.49717-2.86676-1.32849-3.73686-2.92888q-2.27234-4.20681-4.54477-8.40591c-3.03765,1.76355-6.62686-.08544-9.64118-1.91115s-6.60353-3.68244-9.64886-1.91889c-4.46709,2.57927-4.6303,11.1794-9.26051,13.30028-1.49166.68367-3.2241.53606-4.607,1.4761-1.36733.93223-2.10533,2.72683-2.71911,4.44377a4.70683,4.70683,0,0,1-1.52266,2.50932,3.34506,3.34506,0,0,1-1.56933.38072,6.73255,6.73255,0,0,1-4.03976-.56716,3.4141,3.4141,0,0,1-1.39844-4.03982,2.11367,2.11367,0,0,1,.12433-.22528,14.13706,14.13706,0,0,0,1.33622-1.91888c.46612-1.23527-.202-2.67249-.05434-4.00876.24079-2.284,2.65689-3.48821,3.06866-5.73342.1709-.87788-.00777-1.81789.15534-2.70355a2.45812,2.45812,0,0,1,.09332-.34183l-1.42176.97888c1.59265-1.85676,2.39287-4.436,3.5582-6.689a20.59981,20.59981,0,0,1,12.57-10.23162c5.06531-1.47606,10.418-1.07211,15.52994.17871a51.14022,51.14022,0,0,1,13.82082,5.69454,13.7148,13.7148,0,0,1,4.02422,3.27071,25.19186,25.19186,0,0,1,2.38509,4.40493c1.50712,3.1231,5.62465,6.01309,2.34621,6.44814-2.72687.36516-.24088,2.27632,1.18866,3.56593a3.70784,3.70784,0,0,1,.82345.90117,3.22569,3.22569,0,0,1-.171,3.11532C531.2117,231.97793,533.44923,232.11777,532.68781,232.4596Z" transform="translate(-154.96538 -103.63591)" fill="#865a61"/><path d="M531.1108,227.26223l-.31087,3.27071s-32.5981-41.31479-57.95557,5.3372c0,0-.12442-.56716-.3341-1.52272a14.13706,14.13706,0,0,0,1.33622-1.91888c.46612-1.23527-.202-2.67249-.05434-4.00876.24079-2.284,2.65689-3.48821,3.06866-5.73342.1709-.87788-.00777-1.81789.15534-2.70355a2.45812,2.45812,0,0,1,.09332-.34183l-1.42176.97888c1.59265-1.85676,2.39287-4.436,3.5582-6.689a20.59981,20.59981,0,0,1,12.57-10.23162c5.06531-1.47606,10.418-1.07211,15.52994.17871a51.14022,51.14022,0,0,1,13.82082,5.69454,13.7148,13.7148,0,0,1,4.02422,3.27071,25.19186,25.19186,0,0,1,2.38509,4.40493c1.50712,3.1231,5.62465,6.01309,2.34621,6.44814C527.19527,224.06146,529.68126,225.97262,531.1108,227.26223Z" transform="translate(-154.96538 -103.63591)" opacity="0.1"/><g opacity="0.1"><path d="M531.91464,232.03646a1.57413,1.57413,0,0,0-.36957,1.34466c-.79244.69921-1.90343-.12428-2.54821-1.01772-.65256-.88566-1.39056-1.98105-2.37722-1.85677a8.53343,8.53343,0,0,0-1.35955.56716c-1.55378.49717-2.86676-1.32849-3.73687-2.92887q-2.27234-4.20683-4.54476-8.40591c-3.03765,1.76354-6.62686-.08545-9.64118-1.91116s-6.60353-3.68243-9.64886-1.91889c-4.4671,2.57927-4.63031,11.1794-9.26052,13.30029-1.49165.68366-3.22409.536-4.607,1.4761-1.36733.93222-2.10533,2.72683-2.7191,4.44376a4.70691,4.70691,0,0,1-1.52267,2.50933,3.345,3.345,0,0,1-1.56932.38071,6.73257,6.73257,0,0,1-4.03977-.56716,3.63373,3.63373,0,0,1-1.51394-2.13567,3.49314,3.49314,0,0,0,1.51394,3.68944,6.7325,6.7325,0,0,0,4.03977.56716,3.345,3.345,0,0,0,1.56932-.38071,4.70691,4.70691,0,0,0,1.52267-2.50933c.61377-1.71693,1.35177-3.51154,2.7191-4.44376,1.38288-.94005,3.11532-.79244,4.607-1.4761,4.63021-2.12089,4.79342-10.721,9.26052-13.30028,3.04533-1.76355,6.63454.09322,9.64886,1.91888s6.60353,3.6747,9.64118,1.91116q2.27233,4.19516,4.54476,8.40591c.87011,1.60038,2.18309,3.426,3.73687,2.92887a8.53343,8.53343,0,0,1,1.35955-.56716c.98666-.12428,1.72466.97111,2.37722,1.85677.64478.89344,1.75577,1.71694,2.54821,1.01772a2.00239,2.00239,0,0,1,1.32844-2.08205C533.47922,232.581,532.191,232.4359,531.91464,232.03646Z" transform="translate(-154.96538 -103.63591)"/><path d="M529.3743,224.27471a2.81313,2.81313,0,0,1,.73355-.18516c1.44547-.19181,1.45154-.86167.87911-1.81746a2.27194,2.27194,0,0,1-.87911.26369C528.548,222.74465,528.69614,223.4598,529.3743,224.27471Z" transform="translate(-154.96538 -103.63591)"/><path d="M532.3505,230.78222a3.50987,3.50987,0,0,0-.008-1.5192,2.2409,2.2409,0,0,1-.39356.85517C531.70562,230.42664,532.0052,230.62612,532.3505,230.78222Z" transform="translate(-154.96538 -103.63591)"/><path d="M474.0228,228.54431c-.0165.08881-.03528.17654-.045.26872a8.91195,8.91195,0,0,0,.15173,2.08835A7.34919,7.34919,0,0,0,474.0228,228.54431Z" transform="translate(-154.96538 -103.63591)"/><path d="M477.17681,219.06587a11.268,11.268,0,0,1-1.30341,1.94724l1.25391-.86333A8.68832,8.68832,0,0,1,477.17681,219.06587Z" transform="translate(-154.96538 -103.63591)"/></g><path d="M472.84269,235.09325s-4.68769-20.95555-3.19615-24.31635c0,0-4.04846-8.30314-4.04846-10.28008a19.63138,19.63138,0,0,0-2.98308-9.29162c-2.13077-3.36079-4.47462-18.97861,8.31-22.7348s22.58616-7.117,24.0777-9.687,23.43846-.98847,29.40462,8.89623,9.80154,7.90776,9.80154,7.90776,9.16231,5.73312,9.16231,10.87316-2.77,7.71006,0,8.89623.63923,22.5371-11.50616,23.13018l-1.06538,11.26856S498.19885,188.43749,472.84269,235.09325Z" transform="translate(-154.96538 -103.63591)" fill="#6c63ff"/><path d="M474.23881,172.55394s-2.81621,16.50883,2.33066,22.04414Z" transform="translate(-154.96538 -103.63591)" opacity="0.1"/><path d="M487.44587,168.76662s-7.18619,17.67416-5.4382,21.073Z" transform="translate(-154.96538 -103.63591)" opacity="0.1"/><path d="M493.661,163.1342s-4.85554,23.01524-2.52488,24.86035Z" transform="translate(-154.96538 -103.63591)" opacity="0.1"/><path d="M502.01248,169.34929s-6.02086,14.76083-3.59309,16.80015Z" transform="translate(-154.96538 -103.63591)" opacity="0.1"/><path d="M513.37444,171.09728s-7.08909,12.04173-5.63243,14.17817Z" transform="translate(-154.96538 -103.63591)" opacity="0.1"/><path d="M527.94105,182.84768s-7.57464,2.03933-6.02087,4.46709Z" transform="translate(-154.96538 -103.63591)" opacity="0.1"/><path d="M535.12724,195.375s-6.79775,3.30177-5.53531,5.04976Z" transform="translate(-154.96538 -103.63591)" opacity="0.1"/><path d="M469.64654,210.7769s43.41853-17.63619,62.21847,7.71006C531.865,218.487,509.04543,199.08494,469.64654,210.7769Z" transform="translate(-154.96538 -103.63591)" opacity="0.1"/><polygon points="298.991 252.052 305.041 245.932 322.146 262.84 316.096 268.961 300.365 253.411 298.991 252.052" fill="#53526b"/><path d="M414.26667,316.454s26.47922,2.25328,51.124,29.99265l-10.27179,10.391Z" transform="translate(-154.96538 -103.63591)" fill="#dfe6f5"/><path d="M493.68975,366.05276s-25.45044-9.27767-27.95135-11.49625-17.21215,10.68949.73556,28.23639c0,0,21.94654,6.25234,27.81764,0S493.68975,366.05276,493.68975,366.05276Z" transform="translate(-154.96538 -103.63591)" fill="#fdc2cc"/><rect x="804.64969" y="439.73877" width="5.17493" height="116.43582" fill="#535461"/><path d="M997.2924,659.45685l-.32775,5.24394-.45709,7.40016-.18978,3.08767-.45709,7.40879-.19835,3.08772-.45715,7.4001-5.218,84.18746a14.25849,14.25849,0,0,1-14.231,13.37719h-27.108a14.25052,14.25052,0,0,1-14.22241-13.37719l-5.22667-84.18746-.45715-7.4001-.18972-3.08772-.46578-7.40879-.18972-3.08767-.45714-7.40016-.32775-5.24394a7.38646,7.38646,0,0,1,7.37426-7.84h55.44072A7.3796,7.3796,0,0,1,997.2924,659.45685Z" transform="translate(-154.96538 -103.63591)" fill="#65617d"/><polygon points="841.999 561.065 841.542 568.465 772.931 568.465 772.474 561.065 841.999 561.065" fill="#9d9cb5"/><polygon points="841.352 571.553 840.895 578.962 773.587 578.962 773.121 571.553 841.352 571.553" fill="#9d9cb5"/><polygon points="840.697 582.049 840.24 589.449 774.234 589.449 773.777 582.049 840.697 582.049" fill="#9d9cb5"/><path d="M919.54126,587.01737c30.12016,21.788,42.66083,55.86906,42.66083,55.86906s-36.29374-1.24438-66.41389-23.03243-42.66084-55.86906-42.66084-55.86906S889.42111,565.22933,919.54126,587.01737Z" transform="translate(-154.96538 -103.63591)" fill="#6c63ff"/><path d="M853.12736,563.98494s37.67077,20.91114,49.75571,38.22249,59.319,40.679,59.319,40.679" transform="translate(-154.96538 -103.63591)" fill="none" stroke="#535461" stroke-miterlimit="10" stroke-width="2"/><path d="M938.98211,543.11749c16.39418,11.85908,23.22,30.40913,23.22,30.40913s-19.75442-.67731-36.14861-12.53638-23.22-30.40913-23.22-30.40913S922.58792,531.25842,938.98211,543.11749Z" transform="translate(-154.96538 -103.63591)" fill="#6c63ff"/><path d="M902.8335,530.58111s20.50393,11.38178,27.08167,20.80422,32.28692,22.14129,32.28692,22.14129" transform="translate(-154.96538 -103.63591)" fill="none" stroke="#535461" stroke-miterlimit="10" stroke-width="2"/><path d="M986.02559,572.58246c-18.83028,20.69669-22.81359,47.739-22.81359,47.739s26.5466-6.51371,45.37688-27.21041,22.81359-47.739,22.81359-47.739S1004.85587,551.88576,986.02559,572.58246Z" transform="translate(-154.96538 -103.63591)" fill="#6c63ff"/><path d="M1031.40247,545.372s-24.52823,21.21505-30.76188,35.8324-37.42859,39.117-37.42859,39.117" transform="translate(-154.96538 -103.63591)" fill="none" stroke="#535461" stroke-miterlimit="10" stroke-width="2"/></svg>